STARTFONT 2.1
FONT -FontForge-Everyday_Vast_Blocky_Black-Book-R-Normal--11-110-75-75-P-83-ISO10646-1
SIZE 11 75 75
FONTBOUNDINGBOX 14 17 0 -2
COMMENT "Generated by fontforge, http://fontforge.sourceforge.net"
STARTPROPERTIES 38
FOUNDRY "FontForge"
FAMILY_NAME "Everyday_Vast_Blocky_Black"
WEIGHT_NAME "Book"
SLANT "R"
SETWIDTH_NAME "Normal"
ADD_STYLE_NAME ""
PIXEL_SIZE 11
POINT_SIZE 110
RESOLUTION_X 75
RESOLUTION_Y 75
SPACING "P"
AVERAGE_WIDTH 83
CHARSET_REGISTRY "ISO10646"
CHARSET_ENCODING "1"
FONTNAME_REGISTRY ""
CHARSET_COLLECTIONS "ISO10646-1"
FONT_NAME "Everyday_Vast_Blocky_Black"
FACE_NAME "Everyday_Vast_Blocky_Black Regular"
FONT_VERSION "1.0"
FONT_ASCENT 8
FONT_DESCENT 3
UNDERLINE_POSITION 1
UNDERLINE_THICKNESS 1
X_HEIGHT 8
CAP_HEIGHT 10
RAW_ASCENT 799
RAW_DESCENT 200
NORM_SPACE 8
RELATIVE_WEIGHT 40
RELATIVE_SETWIDTH 50
SUPERSCRIPT_X 0
SUPERSCRIPT_Y 5
SUPERSCRIPT_SIZE 5
SUBSCRIPT_X 0
SUBSCRIPT_Y -2
SUBSCRIPT_SIZE 5
AVG_LOWERCASE_WIDTH 82
AVG_UPPERCASE_WIDTH 95
ENDPROPERTIES
CHARS 165
STARTCHAR uni000D
ENCODING 13
SWIDTH 90 0
DWIDTH 1 0
BBX 1 1 0 0
BITMAP
00
ENDCHAR
STARTCHAR space
ENCODING 32
SWIDTH 727 0
DWIDTH 8 0
BBX 1 1 0 0
BITMAP
00
ENDCHAR
STARTCHAR exclam
ENCODING 33
SWIDTH 272 0
DWIDTH 3 0
BBX 2 11 0 0
BITMAP
C0
C0
C0
C0
C0
C0
C0
C0
00
C0
C0
ENDCHAR
STARTCHAR quotedbl
ENCODING 34
SWIDTH 727 0
DWIDTH 8 0
BBX 7 3 0 8
BITMAP
66
66
EE
ENDCHAR
STARTCHAR numbersign
ENCODING 35
SWIDTH 1000 0
DWIDTH 11 0
BBX 10 9 0 0
BITMAP
3300
3300
FFC0
3300
3300
3300
FFC0
3300
3300
ENDCHAR
STARTCHAR dollar
ENCODING 36
SWIDTH 818 0
DWIDTH 9 0
BBX 8 11 0 0
BITMAP
18
7F
DB
D8
D8
FF
1B
1B
9B
FE
18
ENDCHAR
STARTCHAR percent
ENCODING 37
SWIDTH 1090 0
DWIDTH 12 0
BBX 11 11 0 0
BITMAP
7860
D8E0
D9C0
F380
0700
0E00
1C00
39E0
7360
E360
C3C0
ENDCHAR
STARTCHAR ampersand
ENCODING 38
SWIDTH 1090 0
DWIDTH 12 0
BBX 11 11 0 0
BITMAP
3E00
6600
6600
6C00
3800
6C00
C600
C360
C1C0
C1C0
FF60
ENDCHAR
STARTCHAR quotesingle
ENCODING 39
SWIDTH 363 0
DWIDTH 4 0
BBX 3 3 0 8
BITMAP
60
60
E0
ENDCHAR
STARTCHAR parenleft
ENCODING 40
SWIDTH 454 0
DWIDTH 5 0
BBX 4 15 0 -2
BITMAP
70
C0
C0
C0
C0
C0
C0
C0
C0
C0
C0
C0
60
60
30
ENDCHAR
STARTCHAR parenright
ENCODING 41
SWIDTH 454 0
DWIDTH 5 0
BBX 4 15 0 -2
BITMAP
C0
60
60
30
30
30
30
30
30
30
30
30
30
30
E0
ENDCHAR
STARTCHAR asterisk
ENCODING 42
SWIDTH 818 0
DWIDTH 9 0
BBX 8 7 0 1
BITMAP
18
18
DB
3C
DB
18
18
ENDCHAR
STARTCHAR plus
ENCODING 43
SWIDTH 818 0
DWIDTH 9 0
BBX 8 7 0 1
BITMAP
18
18
18
FF
18
18
18
ENDCHAR
STARTCHAR comma
ENCODING 44
SWIDTH 363 0
DWIDTH 4 0
BBX 3 3 0 -1
BITMAP
60
60
E0
ENDCHAR
STARTCHAR hyphen
ENCODING 45
SWIDTH 727 0
DWIDTH 8 0
BBX 7 1 0 3
BITMAP
FE
ENDCHAR
STARTCHAR period
ENCODING 46
SWIDTH 272 0
DWIDTH 3 0
BBX 2 2 0 0
BITMAP
C0
C0
ENDCHAR
STARTCHAR slash
ENCODING 47
SWIDTH 636 0
DWIDTH 7 0
BBX 6 11 0 0
BITMAP
0C
0C
1C
18
38
30
70
60
E0
C0
C0
ENDCHAR
STARTCHAR zero
ENCODING 48
SWIDTH 818 0
DWIDTH 9 0
BBX 8 11 0 0
BITMAP
FF
C3
C3
C3
C3
DB
C3
C3
C3
C3
FF
ENDCHAR
STARTCHAR one
ENCODING 49
SWIDTH 636 0
DWIDTH 7 0
BBX 6 11 0 0
BITMAP
30
F0
30
30
30
30
30
30
30
30
FC
ENDCHAR
STARTCHAR two
ENCODING 50
SWIDTH 818 0
DWIDTH 9 0
BBX 8 11 0 0
BITMAP
FE
C3
03
03
03
FF
C0
C0
C0
C3
FF
ENDCHAR
STARTCHAR three
ENCODING 51
SWIDTH 818 0
DWIDTH 9 0
BBX 8 11 0 0
BITMAP
FF
C3
03
03
03
3F
03
03
03
C3
FF
ENDCHAR
STARTCHAR four
ENCODING 52
SWIDTH 818 0
DWIDTH 9 0
BBX 8 11 0 0
BITMAP
C3
C3
C3
C3
C3
FF
03
03
03
03
03
ENDCHAR
STARTCHAR five
ENCODING 53
SWIDTH 818 0
DWIDTH 9 0
BBX 8 11 0 0
BITMAP
FF
C3
C0
C0
C0
FF
03
03
03
C3
FE
ENDCHAR
STARTCHAR six
ENCODING 54
SWIDTH 818 0
DWIDTH 9 0
BBX 8 11 0 0
BITMAP
FF
C3
C0
C0
FF
C3
C3
C3
C3
C3
FF
ENDCHAR
STARTCHAR seven
ENCODING 55
SWIDTH 818 0
DWIDTH 9 0
BBX 8 11 0 0
BITMAP
FF
C3
03
03
03
06
0C
18
30
60
C0
ENDCHAR
STARTCHAR eight
ENCODING 56
SWIDTH 818 0
DWIDTH 9 0
BBX 8 11 0 0
BITMAP
FF
C3
C3
C3
C3
FF
C3
C3
C3
C3
FF
ENDCHAR
STARTCHAR nine
ENCODING 57
SWIDTH 818 0
DWIDTH 9 0
BBX 8 11 0 0
BITMAP
FF
C3
C3
C3
C3
C3
FF
03
03
C3
FF
ENDCHAR
STARTCHAR colon
ENCODING 58
SWIDTH 272 0
DWIDTH 3 0
BBX 2 8 0 0
BITMAP
C0
C0
00
00
00
00
C0
C0
ENDCHAR
STARTCHAR semicolon
ENCODING 59
SWIDTH 363 0
DWIDTH 4 0
BBX 3 9 0 -1
BITMAP
60
60
00
00
00
00
60
60
E0
ENDCHAR
STARTCHAR less
ENCODING 60
SWIDTH 727 0
DWIDTH 8 0
BBX 7 7 0 1
BITMAP
0E
18
30
60
C0
C0
FE
ENDCHAR
STARTCHAR equal
ENCODING 61
SWIDTH 636 0
DWIDTH 7 0
BBX 6 6 0 1
BITMAP
FC
00
00
00
00
FC
ENDCHAR
STARTCHAR greater
ENCODING 62
SWIDTH 727 0
DWIDTH 8 0
BBX 7 7 0 1
BITMAP
FE
02
06
0C
18
30
E0
ENDCHAR
STARTCHAR question
ENCODING 63
SWIDTH 727 0
DWIDTH 8 0
BBX 7 11 0 0
BITMAP
FC
C6
06
06
06
06
7E
60
00
60
60
ENDCHAR
STARTCHAR at
ENCODING 64
SWIDTH 1090 0
DWIDTH 12 0
BBX 11 11 0 0
BITMAP
7FE0
C060
C060
CF60
DB60
DB60
DB60
DFE0
C000
C000
FE00
ENDCHAR
STARTCHAR A
ENCODING 65
SWIDTH 818 0
DWIDTH 9 0
BBX 8 11 0 0
BITMAP
1F
33
63
63
C3
C3
FF
C3
C3
C3
C3
ENDCHAR
STARTCHAR B
ENCODING 66
SWIDTH 909 0
DWIDTH 10 0
BBX 9 11 0 0
BITMAP
FC00
C600
C300
C300
C300
FF00
C180
C180
C180
C180
FF80
ENDCHAR
STARTCHAR C
ENCODING 67
SWIDTH 909 0
DWIDTH 10 0
BBX 9 11 0 0
BITMAP
3F00
6300
C000
C000
C000
C000
C000
C000
C000
C180
FF80
ENDCHAR
STARTCHAR D
ENCODING 68
SWIDTH 818 0
DWIDTH 9 0
BBX 8 11 0 0
BITMAP
FC
C6
C3
C3
C3
C3
C3
C3
C3
C3
FE
ENDCHAR
STARTCHAR E
ENCODING 69
SWIDTH 818 0
DWIDTH 9 0
BBX 8 11 0 0
BITMAP
FF
C0
C0
C0
C0
FC
C0
C0
C0
C0
FF
ENDCHAR
STARTCHAR F
ENCODING 70
SWIDTH 818 0
DWIDTH 9 0
BBX 8 11 0 0
BITMAP
FF
C0
C0
C0
C0
FC
C0
C0
C0
C0
C0
ENDCHAR
STARTCHAR G
ENCODING 71
SWIDTH 909 0
DWIDTH 10 0
BBX 9 11 0 0
BITMAP
3F00
6300
C000
C000
C000
C780
C180
C180
C180
C180
FF80
ENDCHAR
STARTCHAR H
ENCODING 72
SWIDTH 818 0
DWIDTH 9 0
BBX 8 11 0 0
BITMAP
C3
C3
C3
C3
C3
FF
C3
C3
C3
C3
C3
ENDCHAR
STARTCHAR I
ENCODING 73
SWIDTH 636 0
DWIDTH 7 0
BBX 6 11 0 0
BITMAP
FC
30
30
30
30
30
30
30
30
30
FC
ENDCHAR
STARTCHAR J
ENCODING 74
SWIDTH 818 0
DWIDTH 9 0
BBX 8 11 0 0
BITMAP
3F
03
03
03
03
03
03
03
03
C6
FC
ENDCHAR
STARTCHAR K
ENCODING 75
SWIDTH 818 0
DWIDTH 9 0
BBX 8 11 0 0
BITMAP
C3
C3
C3
C3
C6
FC
C6
C3
C3
C3
C3
ENDCHAR
STARTCHAR L
ENCODING 76
SWIDTH 818 0
DWIDTH 9 0
BBX 8 11 0 0
BITMAP
C0
C0
C0
C0
C0
C0
C0
C0
C0
C0
FF
ENDCHAR
STARTCHAR M
ENCODING 77
SWIDTH 1363 0
DWIDTH 15 0
BBX 14 11 0 0
BITMAP
3CF0
6318
C30C
C30C
C30C
C30C
C30C
C30C
C30C
C00C
C00C
ENDCHAR
STARTCHAR N
ENCODING 78
SWIDTH 818 0
DWIDTH 9 0
BBX 8 11 0 0
BITMAP
FC
C6
C3
C3
C3
C3
C3
C3
C3
C3
C3
ENDCHAR
STARTCHAR O
ENCODING 79
SWIDTH 909 0
DWIDTH 10 0
BBX 9 11 0 0
BITMAP
3F80
6180
C180
C180
C180
C180
C180
C180
C180
C300
FE00
ENDCHAR
STARTCHAR P
ENCODING 80
SWIDTH 818 0
DWIDTH 9 0
BBX 8 11 0 0
BITMAP
FC
C6
C3
C3
C3
C3
FE
C0
C0
C0
C0
ENDCHAR
STARTCHAR Q
ENCODING 81
SWIDTH 909 0
DWIDTH 10 0
BBX 9 11 0 0
BITMAP
3F80
6180
C180
C180
C180
C180
C180
C180
C780
C300
FD80
ENDCHAR
STARTCHAR R
ENCODING 82
SWIDTH 909 0
DWIDTH 10 0
BBX 9 11 0 0
BITMAP
FC00
C600
C300
C300
C300
C300
FE00
C300
C300
C180
C180
ENDCHAR
STARTCHAR S
ENCODING 83
SWIDTH 818 0
DWIDTH 9 0
BBX 8 11 0 0
BITMAP
3F
63
C0
C0
C0
FF
03
03
03
C6
FC
ENDCHAR
STARTCHAR T
ENCODING 84
SWIDTH 818 0
DWIDTH 9 0
BBX 8 11 0 0
BITMAP
FF
18
18
18
18
18
18
18
18
18
18
ENDCHAR
STARTCHAR U
ENCODING 85
SWIDTH 818 0
DWIDTH 9 0
BBX 8 11 0 0
BITMAP
C3
C3
C3
C3
C3
C3
C3
C3
C3
63
3F
ENDCHAR
STARTCHAR V
ENCODING 86
SWIDTH 818 0
DWIDTH 9 0
BBX 8 11 0 0
BITMAP
C3
C3
C3
C3
C3
C3
C3
C6
CC
D8
F0
ENDCHAR
STARTCHAR W
ENCODING 87
SWIDTH 1363 0
DWIDTH 15 0
BBX 14 11 0 0
BITMAP
C00C
C00C
C30C
C30C
C30C
C30C
C30C
C30C
C30C
6318
3CF0
ENDCHAR
STARTCHAR X
ENCODING 88
SWIDTH 909 0
DWIDTH 10 0
BBX 9 11 0 0
BITMAP
C180
C180
C180
C180
6300
3E00
6300
C180
C180
C180
C180
ENDCHAR
STARTCHAR Y
ENCODING 89
SWIDTH 1000 0
DWIDTH 11 0
BBX 10 11 0 0
BITMAP
C0C0
C0C0
C0C0
6180
3300
1E00
0C00
0C00
0C00
0C00
0C00
ENDCHAR
STARTCHAR Z
ENCODING 90
SWIDTH 818 0
DWIDTH 9 0
BBX 8 11 0 0
BITMAP
FF
C3
03
03
03
7E
C0
C0
C0
C3
FF
ENDCHAR
STARTCHAR bracketleft
ENCODING 91
SWIDTH 454 0
DWIDTH 5 0
BBX 4 15 0 -2
BITMAP
F0
C0
C0
C0
C0
C0
C0
C0
C0
C0
C0
C0
C0
C0
F0
ENDCHAR
STARTCHAR backslash
ENCODING 92
SWIDTH 636 0
DWIDTH 7 0
BBX 6 11 0 0
BITMAP
C0
C0
E0
60
70
30
38
18
1C
0C
0C
ENDCHAR
STARTCHAR bracketright
ENCODING 93
SWIDTH 454 0
DWIDTH 5 0
BBX 4 15 0 -2
BITMAP
F0
30
30
30
30
30
30
30
30
30
30
30
30
30
F0
ENDCHAR
STARTCHAR asciicircum
ENCODING 94
SWIDTH 636 0
DWIDTH 7 0
BBX 6 3 0 8
BITMAP
3C
4C
8C
ENDCHAR
STARTCHAR underscore
ENCODING 95
SWIDTH 1181 0
DWIDTH 13 0
BBX 12 1 0 -1
BITMAP
FFF0
ENDCHAR
STARTCHAR grave
ENCODING 96
SWIDTH 363 0
DWIDTH 4 0
BBX 3 3 0 8
BITMAP
C0
C0
E0
ENDCHAR
STARTCHAR a
ENCODING 97
SWIDTH 727 0
DWIDTH 8 0
BBX 7 9 0 0
BITMAP
3C
06
FE
C6
C6
C6
C6
C6
7E
ENDCHAR
STARTCHAR b
ENCODING 98
SWIDTH 727 0
DWIDTH 8 0
BBX 7 11 0 0
BITMAP
C0
C0
FE
C6
C6
C6
C6
C6
C6
C6
FC
ENDCHAR
STARTCHAR c
ENCODING 99
SWIDTH 727 0
DWIDTH 8 0
BBX 7 9 0 0
BITMAP
7C
C0
C0
C0
C0
C0
C0
C2
FE
ENDCHAR
STARTCHAR d
ENCODING 100
SWIDTH 727 0
DWIDTH 8 0
BBX 7 11 0 0
BITMAP
06
06
7E
C6
C6
C6
C6
C6
C6
C6
FE
ENDCHAR
STARTCHAR e
ENCODING 101
SWIDTH 727 0
DWIDTH 8 0
BBX 7 9 0 0
BITMAP
7E
C6
C6
C6
FE
C0
C0
C6
7E
ENDCHAR
STARTCHAR f
ENCODING 102
SWIDTH 636 0
DWIDTH 7 0
BBX 6 11 0 0
BITMAP
FC
C4
C0
C0
C0
F8
C0
C0
C0
C0
C0
ENDCHAR
STARTCHAR g
ENCODING 103
SWIDTH 727 0
DWIDTH 8 0
BBX 7 11 0 -2
BITMAP
7E
C6
C6
C6
C6
C6
C6
C6
FE
06
7E
ENDCHAR
STARTCHAR h
ENCODING 104
SWIDTH 727 0
DWIDTH 8 0
BBX 7 11 0 0
BITMAP
C0
C0
FC
C6
C6
C6
C6
C6
C6
C6
C6
ENDCHAR
STARTCHAR i
ENCODING 105
SWIDTH 272 0
DWIDTH 3 0
BBX 2 11 0 0
BITMAP
C0
00
C0
C0
C0
C0
C0
C0
C0
C0
C0
ENDCHAR
STARTCHAR j
ENCODING 106
SWIDTH 636 0
DWIDTH 7 0
BBX 6 13 0 -2
BITMAP
0C
00
0C
0C
0C
0C
0C
0C
0C
0C
0C
8C
FC
ENDCHAR
STARTCHAR k
ENCODING 107
SWIDTH 727 0
DWIDTH 8 0
BBX 7 11 0 0
BITMAP
C0
C0
C6
C6
C6
FC
C6
C6
C6
C6
C6
ENDCHAR
STARTCHAR l
ENCODING 108
SWIDTH 454 0
DWIDTH 5 0
BBX 4 11 0 0
BITMAP
C0
C0
C0
C0
C0
C0
C0
C0
C0
C0
F0
ENDCHAR
STARTCHAR m
ENCODING 109
SWIDTH 1181 0
DWIDTH 13 0
BBX 12 9 0 0
BITMAP
79E0
C630
C630
C630
C630
C630
C630
C030
C030
ENDCHAR
STARTCHAR n
ENCODING 110
SWIDTH 818 0
DWIDTH 9 0
BBX 8 9 0 0
BITMAP
FE
C3
C3
C3
C3
C3
C3
C3
C3
ENDCHAR
STARTCHAR o
ENCODING 111
SWIDTH 818 0
DWIDTH 9 0
BBX 8 9 0 0
BITMAP
7F
C3
C3
C3
C3
C3
C3
C3
FE
ENDCHAR
STARTCHAR p
ENCODING 112
SWIDTH 727 0
DWIDTH 8 0
BBX 7 11 0 -2
BITMAP
FC
C6
C6
C6
C6
C6
C6
C6
FE
C0
C0
ENDCHAR
STARTCHAR q
ENCODING 113
SWIDTH 727 0
DWIDTH 8 0
BBX 7 11 0 -2
BITMAP
7E
C6
C6
C6
C6
C6
C6
C6
FE
06
06
ENDCHAR
STARTCHAR r
ENCODING 114
SWIDTH 727 0
DWIDTH 8 0
BBX 7 9 0 0
BITMAP
7E
C6
C0
C0
C0
C0
C0
C0
C0
ENDCHAR
STARTCHAR s
ENCODING 115
SWIDTH 727 0
DWIDTH 8 0
BBX 7 9 0 0
BITMAP
7E
C6
C0
C0
FE
06
06
C6
FC
ENDCHAR
STARTCHAR t
ENCODING 116
SWIDTH 636 0
DWIDTH 7 0
BBX 6 11 0 0
BITMAP
C0
C0
F8
C0
C0
C0
C0
C0
C0
CC
FC
ENDCHAR
STARTCHAR u
ENCODING 117
SWIDTH 818 0
DWIDTH 9 0
BBX 8 9 0 0
BITMAP
C3
C3
C3
C3
C3
C3
C3
C3
7F
ENDCHAR
STARTCHAR v
ENCODING 118
SWIDTH 818 0
DWIDTH 9 0
BBX 8 9 0 0
BITMAP
C3
C3
C3
C3
C6
CC
D8
F0
E0
ENDCHAR
STARTCHAR w
ENCODING 119
SWIDTH 1181 0
DWIDTH 13 0
BBX 12 9 0 0
BITMAP
C030
C030
C630
C630
C630
C630
C630
C630
79E0
ENDCHAR
STARTCHAR x
ENCODING 120
SWIDTH 818 0
DWIDTH 9 0
BBX 8 9 0 0
BITMAP
C3
C3
C3
C3
7E
C3
C3
C3
C3
ENDCHAR
STARTCHAR y
ENCODING 121
SWIDTH 727 0
DWIDTH 8 0
BBX 7 11 0 -2
BITMAP
C6
C6
C6
C6
C6
C6
C6
C6
7E
06
7E
ENDCHAR
STARTCHAR z
ENCODING 122
SWIDTH 727 0
DWIDTH 8 0
BBX 7 9 0 0
BITMAP
FE
86
06
06
7C
C0
C0
C2
FE
ENDCHAR
STARTCHAR braceleft
ENCODING 123
SWIDTH 545 0
DWIDTH 6 0
BBX 5 15 0 -2
BITMAP
78
60
60
60
60
60
60
C0
60
60
60
60
60
60
78
ENDCHAR
STARTCHAR bar
ENCODING 124
SWIDTH 272 0
DWIDTH 3 0
BBX 2 13 0 -2
BITMAP
C0
C0
C0
C0
C0
C0
C0
C0
C0
C0
C0
C0
C0
ENDCHAR
STARTCHAR braceright
ENCODING 125
SWIDTH 545 0
DWIDTH 6 0
BBX 5 15 0 -2
BITMAP
F0
30
30
30
30
30
30
18
30
30
30
30
30
30
F0
ENDCHAR
STARTCHAR asciitilde
ENCODING 126
SWIDTH 727 0
DWIDTH 8 0
BBX 7 3 0 8
BITMAP
E6
D6
CE
ENDCHAR
STARTCHAR exclamdown
ENCODING 161
SWIDTH 272 0
DWIDTH 3 0
BBX 2 11 0 0
BITMAP
C0
C0
00
C0
C0
C0
C0
C0
C0
C0
C0
ENDCHAR
STARTCHAR questiondown
ENCODING 191
SWIDTH 727 0
DWIDTH 8 0
BBX 7 11 0 0
BITMAP
0C
0C
00
0C
FC
C0
C0
C0
C0
C2
7E
ENDCHAR
STARTCHAR Agrave
ENCODING 192
SWIDTH 818 0
DWIDTH 9 0
BBX 8 15 0 0
BITMAP
18
18
1C
00
1F
33
63
63
C3
C3
FF
C3
C3
C3
C3
ENDCHAR
STARTCHAR Aacute
ENCODING 193
SWIDTH 818 0
DWIDTH 9 0
BBX 8 15 0 0
BITMAP
18
18
38
00
1F
33
63
63
C3
C3
FF
C3
C3
C3
C3
ENDCHAR
STARTCHAR Acircumflex
ENCODING 194
SWIDTH 818 0
DWIDTH 9 0
BBX 8 15 0 0
BITMAP
1E
36
66
00
1F
33
63
63
C3
C3
FF
C3
C3
C3
C3
ENDCHAR
STARTCHAR Atilde
ENCODING 195
SWIDTH 818 0
DWIDTH 9 0
BBX 8 15 0 0
BITMAP
76
7E
6E
00
1F
33
63
63
C3
C3
FF
C3
C3
C3
C3
ENDCHAR
STARTCHAR Adieresis
ENCODING 196
SWIDTH 818 0
DWIDTH 9 0
BBX 8 14 0 0
BITMAP
C3
C3
00
1F
33
63
63
C3
C3
FF
C3
C3
C3
C3
ENDCHAR
STARTCHAR Aring
ENCODING 197
SWIDTH 818 0
DWIDTH 9 0
BBX 8 15 0 0
BITMAP
3E
66
66
66
7F
33
63
63
C3
C3
FF
C3
C3
C3
C3
ENDCHAR
STARTCHAR AE
ENCODING 198
SWIDTH 1181 0
DWIDTH 13 0
BBX 12 11 0 0
BITMAP
1FF0
3600
6600
6600
C600
C7C0
FE00
C600
C600
C600
C7F0
ENDCHAR
STARTCHAR Ccedilla
ENCODING 199
SWIDTH 909 0
DWIDTH 10 0
BBX 9 13 0 -2
BITMAP
3F00
6300
C000
C000
C000
C000
C000
C000
C000
C180
FF80
0C00
1C00
ENDCHAR
STARTCHAR Egrave
ENCODING 200
SWIDTH 818 0
DWIDTH 9 0
BBX 8 15 0 0
BITMAP
18
18
1C
00
FF
C0
C0
C0
C0
FC
C0
C0
C0
C0
FF
ENDCHAR
STARTCHAR Eacute
ENCODING 201
SWIDTH 818 0
DWIDTH 9 0
BBX 8 15 0 0
BITMAP
18
18
38
00
FF
C0
C0
C0
C0
FC
C0
C0
C0
C0
FF
ENDCHAR
STARTCHAR Ecircumflex
ENCODING 202
SWIDTH 818 0
DWIDTH 9 0
BBX 8 15 0 0
BITMAP
1E
36
66
00
FF
C0
C0
C0
C0
FC
C0
C0
C0
C0
FF
ENDCHAR
STARTCHAR Edieresis
ENCODING 203
SWIDTH 818 0
DWIDTH 9 0
BBX 8 14 0 0
BITMAP
C3
C3
00
FF
C0
C0
C0
C0
FC
C0
C0
C0
C0
FF
ENDCHAR
STARTCHAR Igrave
ENCODING 204
SWIDTH 636 0
DWIDTH 7 0
BBX 6 15 0 0
BITMAP
30
30
38
00
FC
30
30
30
30
30
30
30
30
30
FC
ENDCHAR
STARTCHAR Iacute
ENCODING 205
SWIDTH 636 0
DWIDTH 7 0
BBX 6 15 0 0
BITMAP
30
30
70
00
FC
30
30
30
30
30
30
30
30
30
FC
ENDCHAR
STARTCHAR Icircumflex
ENCODING 206
SWIDTH 636 0
DWIDTH 7 0
BBX 6 15 0 0
BITMAP
3C
6C
CC
00
FC
30
30
30
30
30
30
30
30
30
FC
ENDCHAR
STARTCHAR Idieresis
ENCODING 207
SWIDTH 636 0
DWIDTH 7 0
BBX 6 14 0 0
BITMAP
CC
CC
00
FC
30
30
30
30
30
30
30
30
30
FC
ENDCHAR
STARTCHAR Eth
ENCODING 208
SWIDTH 909 0
DWIDTH 10 0
BBX 9 11 0 0
BITMAP
7E00
6300
6180
6180
6180
FD80
6180
6180
6180
6180
7F00
ENDCHAR
STARTCHAR Ntilde
ENCODING 209
SWIDTH 818 0
DWIDTH 9 0
BBX 8 15 0 0
BITMAP
76
7E
6E
00
FC
C6
C3
C3
C3
C3
C3
C3
C3
C3
C3
ENDCHAR
STARTCHAR Ograve
ENCODING 210
SWIDTH 909 0
DWIDTH 10 0
BBX 9 15 0 0
BITMAP
1800
1800
1C00
0000
3F80
6180
C180
C180
C180
C180
C180
C180
C180
C300
FE00
ENDCHAR
STARTCHAR Oacute
ENCODING 211
SWIDTH 909 0
DWIDTH 10 0
BBX 9 15 0 0
BITMAP
0C00
0C00
1C00
0000
3F80
6180
C180
C180
C180
C180
C180
C180
C180
C300
FE00
ENDCHAR
STARTCHAR Ocircumflex
ENCODING 212
SWIDTH 909 0
DWIDTH 10 0
BBX 9 15 0 0
BITMAP
0F00
1B00
3300
0000
3F80
6180
C180
C180
C180
C180
C180
C180
C180
C300
FE00
ENDCHAR
STARTCHAR Otilde
ENCODING 213
SWIDTH 909 0
DWIDTH 10 0
BBX 9 15 0 0
BITMAP
3B00
3F00
3700
0000
3F80
6180
C180
C180
C180
C180
C180
C180
C180
C300
FE00
ENDCHAR
STARTCHAR Odieresis
ENCODING 214
SWIDTH 909 0
DWIDTH 10 0
BBX 9 14 0 0
BITMAP
C180
C180
0000
3F80
6180
C180
C180
C180
C180
C180
C180
C180
C300
FE00
ENDCHAR
STARTCHAR Ugrave
ENCODING 217
SWIDTH 818 0
DWIDTH 9 0
BBX 8 15 0 0
BITMAP
18
18
1C
00
C3
C3
C3
C3
C3
C3
C3
C3
C3
63
3F
ENDCHAR
STARTCHAR Uacute
ENCODING 218
SWIDTH 818 0
DWIDTH 9 0
BBX 8 15 0 0
BITMAP
18
18
38
00
C3
C3
C3
C3
C3
C3
C3
C3
C3
63
3F
ENDCHAR
STARTCHAR Ucircumflex
ENCODING 219
SWIDTH 818 0
DWIDTH 9 0
BBX 8 15 0 0
BITMAP
1E
36
66
00
C3
C3
C3
C3
C3
C3
C3
C3
C3
63
3F
ENDCHAR
STARTCHAR Udieresis
ENCODING 220
SWIDTH 818 0
DWIDTH 9 0
BBX 8 14 0 0
BITMAP
C3
C3
00
C3
C3
C3
C3
C3
C3
C3
C3
C3
63
3F
ENDCHAR
STARTCHAR Yacute
ENCODING 221
SWIDTH 1000 0
DWIDTH 11 0
BBX 10 15 0 0
BITMAP
0C00
0C00
1C00
0000
C0C0
C0C0
C0C0
6180
3300
1E00
0C00
0C00
0C00
0C00
0C00
ENDCHAR
STARTCHAR Thorn
ENCODING 222
SWIDTH 727 0
DWIDTH 8 0
BBX 7 11 0 0
BITMAP
C0
FC
C6
C6
C6
C6
C6
C6
C6
FC
C0
ENDCHAR
STARTCHAR germandbls
ENCODING 223
SWIDTH 818 0
DWIDTH 9 0
BBX 8 11 0 0
BITMAP
7E
C6
C6
C6
DE
C3
C3
C3
C3
C3
DF
ENDCHAR
STARTCHAR agrave
ENCODING 224
SWIDTH 727 0
DWIDTH 8 0
BBX 7 13 0 0
BITMAP
18
18
1C
00
3C
06
FE
C6
C6
C6
C6
C6
7E
ENDCHAR
STARTCHAR aacute
ENCODING 225
SWIDTH 727 0
DWIDTH 8 0
BBX 7 13 0 0
BITMAP
18
18
38
00
3C
06
FE
C6
C6
C6
C6
C6
7E
ENDCHAR
STARTCHAR acircumflex
ENCODING 226
SWIDTH 727 0
DWIDTH 8 0
BBX 7 13 0 0
BITMAP
1E
36
66
00
3C
06
FE
C6
C6
C6
C6
C6
7E
ENDCHAR
STARTCHAR atilde
ENCODING 227
SWIDTH 727 0
DWIDTH 8 0
BBX 7 13 0 0
BITMAP
EC
FC
DC
00
3C
06
FE
C6
C6
C6
C6
C6
7E
ENDCHAR
STARTCHAR adieresis
ENCODING 228
SWIDTH 727 0
DWIDTH 8 0
BBX 7 12 0 0
BITMAP
C6
C6
00
3C
06
FE
C6
C6
C6
C6
C6
7E
ENDCHAR
STARTCHAR aring
ENCODING 229
SWIDTH 727 0
DWIDTH 8 0
BBX 7 13 0 0
BITMAP
3E
66
66
66
7C
06
FE
C6
C6
C6
C6
C6
7E
ENDCHAR
STARTCHAR ae
ENCODING 230
SWIDTH 1181 0
DWIDTH 13 0
BBX 12 9 0 0
BITMAP
3FF0
0630
FE30
C630
C7F0
C600
C600
C630
7FF0
ENDCHAR
STARTCHAR ccedilla
ENCODING 231
SWIDTH 727 0
DWIDTH 8 0
BBX 7 11 0 -2
BITMAP
7C
C0
C0
C0
C0
C0
C0
C6
FE
18
38
ENDCHAR
STARTCHAR egrave
ENCODING 232
SWIDTH 727 0
DWIDTH 8 0
BBX 7 13 0 0
BITMAP
30
30
38
00
7E
C6
C6
C6
FE
C0
C0
C6
7E
ENDCHAR
STARTCHAR eacute
ENCODING 233
SWIDTH 727 0
DWIDTH 8 0
BBX 7 13 0 0
BITMAP
18
18
38
00
7E
C6
C6
C6
FE
C0
C0
C6
7E
ENDCHAR
STARTCHAR ecircumflex
ENCODING 234
SWIDTH 727 0
DWIDTH 8 0
BBX 7 13 0 0
BITMAP
1E
36
66
00
7E
C6
C6
C6
FE
C0
C0
C6
7E
ENDCHAR
STARTCHAR edieresis
ENCODING 235
SWIDTH 727 0
DWIDTH 8 0
BBX 7 12 0 0
BITMAP
C6
C6
00
7E
C6
C6
C6
FE
C0
C0
C6
7E
ENDCHAR
STARTCHAR igrave
ENCODING 236
SWIDTH 363 0
DWIDTH 4 0
BBX 3 13 0 0
BITMAP
C0
C0
E0
00
C0
C0
C0
C0
C0
C0
C0
C0
C0
ENDCHAR
STARTCHAR iacute
ENCODING 237
SWIDTH 363 0
DWIDTH 4 0
BBX 3 13 0 0
BITMAP
60
60
E0
00
60
60
60
60
60
60
60
60
60
ENDCHAR
STARTCHAR icircumflex
ENCODING 238
SWIDTH 636 0
DWIDTH 7 0
BBX 6 13 0 0
BITMAP
3C
6C
CC
00
30
30
30
30
30
30
30
30
30
ENDCHAR
STARTCHAR idieresis
ENCODING 239
SWIDTH 636 0
DWIDTH 7 0
BBX 6 12 0 0
BITMAP
CC
CC
00
30
30
30
30
30
30
30
30
30
ENDCHAR
STARTCHAR eth
ENCODING 240
SWIDTH 909 0
DWIDTH 10 0
BBX 9 11 0 0
BITMAP
1E00
0780
7E00
C600
C600
C600
C600
C600
C600
C600
FE00
ENDCHAR
STARTCHAR ntilde
ENCODING 241
SWIDTH 818 0
DWIDTH 9 0
BBX 8 13 0 0
BITMAP
76
7E
6E
00
FE
C3
C3
C3
C3
C3
C3
C3
C3
ENDCHAR
STARTCHAR ograve
ENCODING 242
SWIDTH 818 0
DWIDTH 9 0
BBX 8 13 0 0
BITMAP
30
30
38
00
7F
C3
C3
C3
C3
C3
C3
C3
FE
ENDCHAR
STARTCHAR oacute
ENCODING 243
SWIDTH 818 0
DWIDTH 9 0
BBX 8 13 0 0
BITMAP
18
18
38
00
7F
C3
C3
C3
C3
C3
C3
C3
FE
ENDCHAR
STARTCHAR ocircumflex
ENCODING 244
SWIDTH 818 0
DWIDTH 9 0
BBX 8 13 0 0
BITMAP
1E
36
66
00
7F
C3
C3
C3
C3
C3
C3
C3
FE
ENDCHAR
STARTCHAR otilde
ENCODING 245
SWIDTH 818 0
DWIDTH 9 0
BBX 8 13 0 0
BITMAP
76
7E
6E
00
7F
C3
C3
C3
C3
C3
C3
C3
FE
ENDCHAR
STARTCHAR odieresis
ENCODING 246
SWIDTH 818 0
DWIDTH 9 0
BBX 8 12 0 0
BITMAP
C3
C3
00
7F
C3
C3
C3
C3
C3
C3
C3
FE
ENDCHAR
STARTCHAR ugrave
ENCODING 249
SWIDTH 818 0
DWIDTH 9 0
BBX 8 13 0 0
BITMAP
30
30
38
00
C3
C3
C3
C3
C3
C3
C3
C3
7F
ENDCHAR
STARTCHAR uacute
ENCODING 250
SWIDTH 818 0
DWIDTH 9 0
BBX 8 13 0 0
BITMAP
18
18
38
00
C3
C3
C3
C3
C3
C3
C3
C3
7F
ENDCHAR
STARTCHAR ucircumflex
ENCODING 251
SWIDTH 818 0
DWIDTH 9 0
BBX 8 13 0 0
BITMAP
1E
36
66
00
C3
C3
C3
C3
C3
C3
C3
C3
7F
ENDCHAR
STARTCHAR udieresis
ENCODING 252
SWIDTH 818 0
DWIDTH 9 0
BBX 8 12 0 0
BITMAP
C3
C3
00
C3
C3
C3
C3
C3
C3
C3
C3
7F
ENDCHAR
STARTCHAR yacute
ENCODING 253
SWIDTH 727 0
DWIDTH 8 0
BBX 7 15 0 -2
BITMAP
18
18
38
00
C6
C6
C6
C6
C6
C6
C6
C6
7E
06
7E
ENDCHAR
STARTCHAR thorn
ENCODING 254
SWIDTH 727 0
DWIDTH 8 0
BBX 7 13 0 -1
BITMAP
C0
C0
C0
FC
C6
C6
C6
C6
C6
FE
C0
C0
C0
ENDCHAR
STARTCHAR ydieresis
ENCODING 255
SWIDTH 727 0
DWIDTH 8 0
BBX 7 14 0 -2
BITMAP
C6
C6
00
C6
C6
C6
C6
C6
C6
C6
C6
7E
06
7E
ENDCHAR
STARTCHAR OE
ENCODING 338
SWIDTH 1181 0
DWIDTH 13 0
BBX 12 11 0 0
BITMAP
7FF0
C600
C600
C600
C600
C7C0
C600
C600
C600
C600
FFF0
ENDCHAR
STARTCHAR oe
ENCODING 339
SWIDTH 1181 0
DWIDTH 13 0
BBX 12 9 0 0
BITMAP
7FF0
C630
C630
C630
C7F0
C600
C600
C630
FFF0
ENDCHAR
STARTCHAR Ydieresis
ENCODING 376
SWIDTH 1000 0
DWIDTH 11 0
BBX 10 14 0 0
BITMAP
C0C0
C0C0
0000
C0C0
C0C0
C0C0
6180
3300
1E00
0C00
0C00
0C00
0C00
0C00
ENDCHAR
STARTCHAR Ygrave
ENCODING 7922
SWIDTH 1000 0
DWIDTH 11 0
BBX 10 15 0 0
BITMAP
0C00
0C00
0E00
0000
C0C0
C0C0
C0C0
6180
3300
1E00
0C00
0C00
0C00
0C00
0C00
ENDCHAR
STARTCHAR ygrave
ENCODING 7923
SWIDTH 727 0
DWIDTH 8 0
BBX 7 15 0 -2
BITMAP
30
30
38
00
C6
C6
C6
C6
C6
C6
C6
C6
7E
06
7E
ENDCHAR
STARTCHAR uni220E
ENCODING 8718
SWIDTH 909 0
DWIDTH 10 0
BBX 9 11 0 0
BITMAP
FF80
FF80
FF80
FF80
FF80
FF80
FF80
FF80
FF80
FF80
FF80
ENDCHAR
STARTCHAR .notdef
ENCODING -1
SWIDTH 90 0
DWIDTH 1 0
BBX 1 1 0 0
BITMAP
00
ENDCHAR
ENDFONT
